<mxfile host="app.diagrams.net" modified="2024-05-20T18:43:37.689Z" agent="Mozilla/5.0 (Windows NT 10.0; Win64; x64) AppleWebKit/537.36 (KHTML, like Gecko) Chrome/124.0.0.0 Safari/537.36 Edg/124.0.0.0" version="24.2.7" etag="chnRJZ91bW8sVkNV-egi" type="github">
  <diagram name="PÃ¡gina-1" id="7DPt8NiF-KKHp7xlK2BH">
    <mxGraphModel>
      <root>
        <mxCell id="0" />
        <mxCell id="1" parent="0" />
      </root>
    </mxGraphModel>
  </diagram>
</mxfile>
